<?xml version="1.0" encoding="utf-8"?>
<!DOCTYPE svg PUBLIC "-//W3C//DTD SVG 1.1//EN" "http://www.w3.org/Graphics/SVG/1.1/DTD/svg11.dtd">
<svg version="1.1" id="Livello_1" xmlns="http://www.w3.org/2000/svg" xmlns:xlink="http://www.w3.org/1999/xlink" x="0px" y="0px"
	 width="16px" height="15.3px" viewBox="0 0 16 15.3" enable-background="new 0 0 16 15.3" xml:space="preserve">
<path fill="#808183" d="M0.2,15.2h3.4V4.9H0.2V15.2z M1.9,0C0.8,0,0,0.8,0,1.8c0,1,0.7,1.8,1.9,1.8h0c1.2,0,1.9-0.8,1.9-1.8
	C3.8,0.8,3.1,0,1.9,0 M15.9,9.3v5.9h-3.4V9.7c0-1.4-0.5-2.3-1.7-2.3C9.8,7.4,9.3,8,9,8.6C8.9,8.9,8.9,9.2,8.9,9.5v5.7H5.5
	c0,0,0-9.3,0-10.2h3.4v1.5c0,0,0,0,0,0h0v0c0.5-0.7,1.3-1.7,3.1-1.7C14.2,4.7,15.9,6.2,15.9,9.3"/>
</svg>
