<?xml version="1.0" encoding="utf-8"?>
<!-- Generator: Adobe Illustrator 19.0.0, SVG Export Plug-In . SVG Version: 6.00 Build 0)  -->
<svg version="1.1" id="Livello_1" xmlns="http://www.w3.org/2000/svg" xmlns:xlink="http://www.w3.org/1999/xlink" x="0px" y="0px"
	 viewBox="-329 284.08 185.83 28.2" style="enable-background:new -329 284.08 185.83 28.2;" xml:space="preserve">
<style type="text/css">
	.st0{fill:#007FC7;}
	.st1{fill:#868686;}
	.st2{fill:#043572;}
</style>
<path class="st0" d="M-313.04,303.91c0,0,0.98-0.58,2.2,0.15c1.23,0.73,5.38,3.96,4.34,5.76c-1.04,1.8-4.02,3.56-8.85,1.43
	c-4.83-2.13-7.38-5.77-9.34-8.3c-1.95-2.54-6.33-9.27-3.23-15.96c0,0,1.56-2.67,3.3-2.84c0,0,0.83-0.19,1.94,1.16
	s2.88,4.45,2.46,5.77c0,0-0.91,1.18-1.38,1.96c-0.47,0.78-1.83,1.76-1.12,4c0.71,2.24,3.89,7.88,7.17,7.85
	C-315.56,304.89-314.17,304.81-313.04,303.91"/>
<g>
	<path class="st1" d="M-299.49,294.43h-0.85l-0.82-1.85h-3.81l-0.83,1.85h-0.81l3.19-7.05h0.74L-299.49,294.43z M-303.06,288.31
		l-1.6,3.57h3.19L-303.06,288.31z"/>
	<path class="st1" d="M-295.73,290.55c1.56,0.34,2.28,0.91,2.28,1.99c0,1.21-1,1.99-2.39,1.99c-1.11,0-2.02-0.37-2.86-1.12
		l0.49-0.58c0.73,0.66,1.43,0.99,2.4,0.99c0.94,0,1.56-0.49,1.56-1.2c0-0.66-0.35-1.03-1.82-1.34c-1.61-0.35-2.35-0.87-2.35-2.03
		c0-1.12,0.97-1.92,2.3-1.92c1.02,0,1.75,0.29,2.46,0.86l-0.46,0.61c-0.65-0.53-1.3-0.76-2.02-0.76c-0.91,0-1.49,0.5-1.49,1.14
		C-297.63,289.86-297.27,290.22-295.73,290.55z"/>
	<path class="st1" d="M-289.43,290.55c1.56,0.34,2.28,0.91,2.28,1.99c0,1.21-1,1.99-2.39,1.99c-1.11,0-2.02-0.37-2.86-1.12
		l0.49-0.58c0.73,0.66,1.43,0.99,2.4,0.99c0.94,0,1.56-0.49,1.56-1.2c0-0.66-0.35-1.03-1.82-1.34c-1.61-0.35-2.35-0.87-2.35-2.03
		c0-1.12,0.97-1.92,2.3-1.92c1.02,0,1.75,0.29,2.46,0.86l-0.46,0.61c-0.65-0.53-1.3-0.76-2.02-0.76c-0.91,0-1.49,0.5-1.49,1.14
		C-291.33,289.86-290.97,290.22-289.43,290.55z"/>
	<path class="st1" d="M-284.68,287.44v7h-0.79v-7H-284.68z"/>
	<path class="st1" d="M-280.12,290.55c1.56,0.34,2.28,0.91,2.28,1.99c0,1.21-1,1.99-2.39,1.99c-1.11,0-2.02-0.37-2.86-1.12
		l0.49-0.58c0.73,0.66,1.43,0.99,2.4,0.99c0.94,0,1.56-0.49,1.56-1.2c0-0.66-0.35-1.03-1.82-1.34c-1.61-0.35-2.35-0.87-2.35-2.03
		c0-1.12,0.97-1.92,2.3-1.92c1.02,0,1.75,0.29,2.46,0.86l-0.46,0.61c-0.65-0.53-1.3-0.76-2.02-0.76c-0.91,0-1.49,0.5-1.49,1.14
		C-282.02,289.86-281.66,290.22-280.12,290.55z"/>
	<path class="st1" d="M-273.73,294.43h-0.8v-6.27h-2.35v-0.73h5.5v0.73h-2.35V294.43z"/>
	<path class="st1" d="M-264.84,288.16h-4.27v2.39h3.82v0.72h-3.82v2.45h4.32v0.72h-5.11v-7h5.06V288.16z"/>
	<path class="st1" d="M-258.05,287.44h0.77v7h-0.63l-4.52-5.74v5.74h-0.77v-7h0.74l4.41,5.61V287.44z"/>
	<path class="st1" d="M-255.47,288.15v-0.71h5.46v0.53l-4.54,5.76h4.54v0.71h-5.61v-0.53l4.53-5.76H-255.47z"/>
	<path class="st1" d="M-241.85,294.43h-0.85l-0.82-1.85h-3.81l-0.83,1.85h-0.81l3.19-7.05h0.74L-241.85,294.43z M-245.42,288.31
		l-1.6,3.57h3.19L-245.42,288.31z"/>
	<path class="st1" d="M-234.27,294.55c-2.02,0-3.51-1.59-3.51-3.61c0-2,1.48-3.63,3.54-3.63c1.27,0,2.03,0.45,2.73,1.11l-0.54,0.58
		c-0.59-0.56-1.25-0.96-2.2-0.96c-1.55,0-2.71,1.25-2.71,2.88s1.17,2.9,2.71,2.9c0.96,0,1.59-0.37,2.26-1.01l0.52,0.51
		C-232.2,294.06-233,294.55-234.27,294.55z"/>
	<path class="st1" d="M-230.09,287.44h0.79v6.27h3.94v0.73h-4.73V287.44z"/>
	<path class="st1" d="M-223.04,287.44v7h-0.79v-7H-223.04z"/>
	<path class="st1" d="M-215.93,288.16h-4.27v2.39h3.82v0.72h-3.82v2.45h4.32v0.72h-5.11v-7h5.06V288.16z"/>
	<path class="st1" d="M-209.14,287.44h0.77v7H-209l-4.52-5.74v5.74h-0.77v-7h0.74l4.41,5.61V287.44z"/>
	<path class="st1" d="M-203.74,294.43h-0.8v-6.27h-2.35v-0.73h5.5v0.73h-2.35V294.43z"/>
	<path class="st1" d="M-199.05,287.44v7h-0.79v-7H-199.05z"/>
</g>
<g>
	<g>
		<path class="st2" d="M-299.19,300.74h1.26v3.5h3.54v1.22h-3.54v3.5h-1.26v-3.5h-3.54v-1.22h3.54V300.74z"/>
		<path class="st2" d="M-291.64,300.14v-1.21h7.6v0.99l-3.74,4.15c2.09,0.17,3.93,1.17,3.93,3.37c0,2.14-1.77,3.6-3.98,3.6
			c-1.99,0-3.47-0.87-4.44-2.13l0.97-0.87c0.92,1.12,2.02,1.77,3.48,1.77c1.44,0,2.6-0.92,2.6-2.33c0-1.5-1.36-2.31-3.33-2.31h-0.77
			l-0.27-0.8l3.76-4.23H-291.64z"/>
		<path class="st2" d="M-277.75,311.04c-1.55,0-2.67-0.63-3.67-1.46l0.78-1.04c0.97,0.85,1.87,1.28,2.92,1.28
			c2.14,0,3.59-2.18,3.54-5.22c-0.65,1.04-1.72,1.9-3.37,1.9c-2.45,0-4.15-1.55-4.15-3.71c0-2.28,1.75-4.06,4.28-4.06
			c1.36,0,2.36,0.46,3.13,1.22c0.94,0.93,1.48,2.23,1.48,4.62C-272.81,308.37-274.81,311.04-277.75,311.04z M-277.46,299.92
			c-1.78,0-2.86,1.31-2.86,2.8c0,1.53,1.19,2.62,2.92,2.62c1.82,0,2.96-1.33,2.96-2.7C-274.44,301.11-275.68,299.92-277.46,299.92z"
			/>
		<path class="st2" d="M-260.6,311.04c-3.08,0-5.01-2.79-5.01-6.14s1.97-6.17,5.05-6.17c3.06,0,5,2.79,5,6.14
			S-257.54,311.04-260.6,311.04z M-260.6,299.95c-2.23,0-3.62,2.28-3.62,4.91s1.43,4.95,3.65,4.95c2.23,0,3.6-2.29,3.6-4.91
			C-256.96,302.28-258.37,299.95-260.6,299.95z"/>
		<path class="st2" d="M-249.16,311c-2.53,0-4.47-1.38-4.47-3.38c0-1.43,1.02-2.43,2.45-2.94c-1.1-0.51-2.04-1.36-2.04-2.75
			c0-1.85,1.89-3.16,4.06-3.16s4.06,1.31,4.06,3.16c0,1.39-0.94,2.24-2.04,2.75c1.41,0.53,2.45,1.5,2.45,2.92
			C-244.69,309.64-246.63,311-249.16,311z M-249.16,305.31c-1.73,0-3.11,0.93-3.11,2.28c0,1.22,1.16,2.24,3.11,2.24
			c1.95,0,3.11-1.02,3.11-2.24C-246.05,306.24-247.42,305.31-249.16,305.31z M-249.16,299.94c-1.55,0-2.72,0.87-2.72,2.07
			c0,1.31,1.21,2.19,2.72,2.19s2.72-0.88,2.72-2.19C-246.44,300.82-247.61,299.94-249.16,299.94z"/>
		<path class="st2" d="M-237.73,311.04c-3.08,0-5.01-2.79-5.01-6.14s1.97-6.17,5.05-6.17c3.06,0,5,2.79,5,6.14
			S-234.67,311.04-237.73,311.04z M-237.73,299.95c-2.23,0-3.62,2.28-3.62,4.91s1.43,4.95,3.65,4.95c2.23,0,3.6-2.29,3.6-4.91
			C-234.1,302.28-235.51,299.95-237.73,299.95z"/>
		<path class="st2" d="M-230.66,310.83v-1.79h1.56v1.79H-230.66z"/>
		<path class="st2" d="M-225.78,302.01l-0.99-0.71c1.07-1.6,2.19-2.53,4.28-2.53c2.16,0,3.69,1.43,3.69,3.38
			c0,1.75-0.92,2.82-3.01,4.64l-3.18,2.82h6.31v1.22h-8.31v-1.04l4.32-3.81c1.82-1.63,2.48-2.55,2.48-3.74
			c0-1.39-1.11-2.28-2.4-2.28C-223.95,299.97-224.83,300.69-225.78,302.01z"/>
		<path class="st2" d="M-209.43,298.85v8.04h1.85v1.12h-1.85v2.82h-1.29v-2.82h-6.27l-0.34-0.97l6.73-8.19H-209.43z M-210.72,300.75
			l-5,6.14h5V300.75z"/>
		<path class="st2" d="M-197.94,301.13c-0.88-0.75-1.72-1.17-2.8-1.17c-2.16,0-3.5,2.18-3.49,5.25c0.65-0.95,1.65-1.82,3.38-1.82
			c2.23,0,4.11,1.43,4.11,3.67c0,2.31-1.85,3.98-4.27,3.98c-1.31,0-2.38-0.46-3.13-1.21c-0.95-0.95-1.5-2.18-1.5-4.62
			c0-3.64,1.84-6.48,4.95-6.48c1.43,0,2.48,0.51,3.52,1.36L-197.94,301.13z M-201.01,304.54c-1.79,0-2.97,1.27-2.97,2.62
			c0,1.55,1.26,2.69,3.01,2.69s2.87-1.21,2.87-2.74C-198.11,305.63-199.3,304.54-201.01,304.54z"/>
		<path class="st2" d="M-194.35,310.83v-1.79h1.56v1.79H-194.35z"/>
		<path class="st2" d="M-182.86,298.85v8.04h1.85v1.12h-1.85v2.82h-1.29v-2.82h-6.27l-0.34-0.97l6.73-8.19H-182.86z M-184.15,300.75
			l-5,6.14h5V300.75z"/>
		<path class="st2" d="M-178.06,302.01l-0.99-0.71c1.07-1.6,2.19-2.53,4.28-2.53c2.16,0,3.69,1.43,3.69,3.38
			c0,1.75-0.92,2.82-3.01,4.64l-3.18,2.82h6.31v1.22h-8.31v-1.04l4.32-3.81c1.82-1.63,2.48-2.55,2.48-3.74
			c0-1.39-1.11-2.28-2.4-2.28C-176.23,299.97-177.11,300.69-178.06,302.01z"/>
		<path class="st2" d="M-168.6,310.83v-1.79h1.56v1.79H-168.6z"/>
		<path class="st2" d="M-157.1,298.85v8.04h1.85v1.12h-1.85v2.82h-1.29v-2.82h-6.27l-0.34-0.97l6.73-8.19H-157.1z M-158.4,300.75
			l-5,6.14h5V300.75z"/>
		<path class="st2" d="M-152.31,298.94h6.85v1.24h-5.68l-0.25,3.81c0.7-0.31,1.36-0.53,2.35-0.53c2.31,0,4.11,1.38,4.11,3.65
			c0,2.35-1.77,3.93-4.25,3.93c-1.7,0-3.18-0.82-4.25-1.89l0.88-0.97c1.04,1,2.18,1.63,3.38,1.63c1.7,0,2.87-1.12,2.87-2.65
			c0-1.5-1.21-2.52-2.96-2.52c-1,0-1.8,0.31-2.5,0.68l-0.9-0.59L-152.31,298.94z"/>
	</g>
</g>
</svg>
