<?xml version="1.0" encoding="utf-8"?>
<!DOCTYPE svg PUBLIC "-//W3C//DTD SVG 1.1//EN" "http://www.w3.org/Graphics/SVG/1.1/DTD/svg11.dtd">
<svg version="1.1" id="Livello_1" xmlns="http://www.w3.org/2000/svg" xmlns:xlink="http://www.w3.org/1999/xlink" x="0px" y="0px"
	 width="20px" height="13.6px" viewBox="0 0 20 13.6" enable-background="new 0 0 20 13.6" xml:space="preserve">
<path fill="#808183" d="M17.9,6.2c0.5,0.1,1.2,0.2,1.8,0.1c-0.5,0.6-1.3,0.9-2.3,0.9c-0.6,2.3-2.1,3.9-3.9,4.9
	C9.3,14.5,3.1,14.1,0,9.8c2,1.6,5,1.9,7.3-0.3c-1.5,0-1.8-1.1-0.7-1.7c-1.1,0-1.8-0.4-2.2-1C4.2,6.6,4.2,6.6,4.5,6.4
	c0.3-0.2,0.7-0.3,1.1-0.3C4.4,5.8,3.7,5.2,3.5,4.4C3.4,4.1,3.4,4.1,3.6,4.1C3.9,4,4.2,4,4.5,3.9C3.6,3.4,3.1,2.7,3,2
	C2.9,1.3,3,1.5,3.5,1.7c2.3,0.9,4.6,1.8,6,3.2c0.6-2,1.4-3.2,2.3-4.1c0.7-0.7,1-0.9,0.6-0.1c0.2-0.1,0.4-0.3,0.6-0.4
	c1.1-0.5,1-0.1,0.3,0.4c2-0.7,1.9,0.2-0.2,0.7c1.7,0,3.6,1.1,4.1,3.5c0.1,0.3,0,0.3,0.3,0.4c0.7,0.1,1.4,0.1,2.1-0.1
	c-0.1,0.5-0.7,0.8-1.7,1C17.5,6.1,17.4,6.1,17.9,6.2"/>
</svg>
