<?xml version="1.0" encoding="utf-8"?>
<!DOCTYPE svg PUBLIC "-//W3C//DTD SVG 1.1//EN" "http://www.w3.org/Graphics/SVG/1.1/DTD/svg11.dtd">
<svg version="1.1" id="Livello_1" xmlns="http://www.w3.org/2000/svg" xmlns:xlink="http://www.w3.org/1999/xlink" x="0px" y="0px"
	 width="21.8px" height="15.3px" viewBox="0 0 21.8 15.3" enable-background="new 0 0 21.8 15.3" xml:space="preserve">
<path fill="#808183" d="M8.6,10.5l0-6.1l5.9,3.1L8.6,10.5z M21.5,3.3c0,0-0.2-1.5-0.9-2.2c-0.8-0.9-1.8-0.9-2.2-0.9
	C15.4,0,10.9,0,10.9,0h0c0,0-4.6,0-7.6,0.2C2.8,0.3,1.9,0.3,1.1,1.2C0.4,1.8,0.2,3.3,0.2,3.3S0,5.1,0,6.8v1.6C0,10.3,0.2,12,0.2,12
	s0.2,1.5,0.9,2.2C1.9,15,3,15,3.5,15.1c1.7,0.2,7.4,0.2,7.4,0.2s4.6,0,7.6-0.2c0.4,0,1.4-0.1,2.2-0.9c0.7-0.7,0.9-2.2,0.9-2.2
	s0.2-1.8,0.2-3.5V6.8C21.7,5.1,21.5,3.3,21.5,3.3"/>
</svg>
